<?xml version="1.0" encoding="UTF-8"?>
<svg viewBox="0 0 48 48" xmlns="http://www.w3.org/2000/svg" xmlns:cc="http://creativecommons.org/ns#" xmlns:dc="http://purl.org/dc/elements/1.1/" xmlns:rdf="http://www.w3.org/1999/02/22-rdf-syntax-ns#" xmlns:xlink="http://www.w3.org/1999/xlink">
<defs>
<linearGradient id="c" x1="-28.969" x2="-37.197" y1="-25.327" y2="-9.5591" gradientUnits="userSpaceOnUse">
<stop stop-color="#fff9c6" offset="0"/>
<stop stop-color="#fff28c" offset=".54167"/>
<stop stop-color="#ffea85" offset="1"/>
</linearGradient>
<radialGradient id="b" cx="-33.519" cy="-22.113" r="9.5" gradientTransform="matrix(.48774 1.2924 -1.1027 .49724 -41.774 32.415)" gradientUnits="userSpaceOnUse">
<stop stop-color="#fff7c2" stop-opacity=".6383" offset="0"/>
<stop stop-color="#fcaf3e" stop-opacity=".18349" offset=".59394"/>
<stop stop-color="#fcaf3e" stop-opacity=".50459" offset=".83851"/>
<stop stop-color="#fcaf3e" offset="1"/>
</radialGradient>
<radialGradient id="a" cx="24" cy="23.382" r="19.142" gradientTransform="matrix(1.0067 2.2353e-16 -2.2372e-16 1.0075 -.16082 .42698)" gradientUnits="userSpaceOnUse">
<stop stop-color="#fff" stop-opacity="0" offset="0"/>
<stop stop-color="#fff" stop-opacity="0" offset=".75"/>
<stop stop-color="#fff" offset="1"/>
</radialGradient>
</defs>
<metadata>
<rdf:RDF>
<cc:Work rdf:about="">
<dc:format>image/svg+xml</dc:format>
<dc:type rdf:resource="http://purl.org/dc/dcmitype/StillImage"/>
<dc:title>weather-clear</dc:title>
<dc:date>January 2006</dc:date>
<dc:creator>
<cc:Agent>
<dc:title>Ryan Collier (pseudo)</dc:title>
</cc:Agent>
</dc:creator>
<dc:publisher>
<cc:Agent>
<dc:title>http://www.tango-project.org</dc:title>
</cc:Agent>
</dc:publisher>
<dc:source>http://www.pseudocode.org</dc:source>
<dc:subject>
<rdf:Bag>
<rdf:li>weather</rdf:li>
<rdf:li>applet</rdf:li>
<rdf:li>notification</rdf:li>
</rdf:Bag>
</dc:subject>
<cc:license rdf:resource="http://creativecommons.org/licenses/publicdomain/"/>
<dc:contributor>
<cc:Agent>
<dc:title>Garrett LeSage</dc:title>
</cc:Agent>
</dc:contributor>
</cc:Work>
<cc:License rdf:about="http://creativecommons.org/licenses/publicdomain/">
<cc:permits rdf:resource="http://creativecommons.org/ns#Reproduction"/>
<cc:permits rdf:resource="http://creativecommons.org/ns#Distribution"/>
<cc:permits rdf:resource="http://creativecommons.org/ns#DerivativeWorks"/>
</cc:License>
</rdf:RDF>
</metadata>
<g opacity=".7" stroke-linecap="square">
<path d="m24 2.5l-2.375 6.6875c0.77403-0.12337 1.5664-0.1875 2.375-0.1875s1.601 0.064132 2.375 0.1875l-2.375-6.6875zm-15.188 6.2812l3.0312 6.4375c0.93528-1.2902 2.0848-2.4397 3.375-3.375l-6.4062-3.0625zm30.406 0l-6.4375 3.0625c1.2902 0.93528 2.4397 2.0848 3.375 3.375l3.0625-6.4375zm-30.031 12.812l-6.6875 2.375 6.6875 2.375c-0.12016-0.76423-0.1875-1.5459-0.1875-2.3438 0-0.81938 0.060886-1.6224 0.1875-2.4062zm29.625 0.03125c0.12337 0.77403 0.1875 1.5664 0.1875 2.375s-0.064132 1.601-0.1875 2.375l6.6875-2.375-6.6875-2.375zm-26.969 11.156l-3.0312 6.4062 6.4062-3.0312c-1.2902-0.93528-2.4397-2.0848-3.375-3.375zm24.312 0c-0.92646 1.278-2.0686 2.4135-3.3438 3.3438l6.4062 3.0625-3.0625-6.4062zm-14.531 6.0312l2.375 6.6875 2.375-6.6875c-0.77403 0.12337-1.5664 0.1875-2.375 0.1875s-1.601-0.064132-2.375-0.1875z" fill="#fce94f" stroke="#fcaf3e" stroke-width=".73733"/>
<path d="m24 5.25l-1.3438 3.8125c0.44264-0.039351 0.89094-0.0625 1.3438-0.0625s0.90111 0.023149 1.3438 0.0625l-1.3438-3.8125zm-13.219 5.5l1.7188 3.625c0.57154-0.68091 1.224-1.3363 1.9062-1.9062l-3.625-1.7188zm26.469 0l-3.625 1.7188c0.67968 0.56944 1.3368 1.2266 1.9062 1.9062l1.7188-3.625zm-28.188 11.875l-3.7812 1.3438 3.7812 1.3438c-0.037519-0.43235-0.0625-0.87047-0.0625-1.3125 0-0.46359 0.021274-0.92209 0.0625-1.375zm29.875 0.03125c0.039351 0.44264 0.0625 0.89094 0.0625 1.3438s-0.023149 0.90111-0.0625 1.3438l3.7812-1.3438-3.7812-1.3438zm-3.4062 10.938c-0.57296 0.68579-1.2213 1.3636-1.9062 1.9375l3.625 1.7188-1.7188-3.6562zm-23.031 0.03125l-1.7188 3.5938 3.5938-1.7188c-0.67207-0.56412-1.3109-1.2029-1.875-1.875zm10.156 5.3125l1.3438 3.7812 1.3438-3.7812c-0.44264 0.039351-0.89094 0.0625-1.3438 0.0625s-0.90111-0.023149-1.3438-0.0625z" fill="none" stroke="url(#a)" stroke-width=".84646"/>
</g>
<path transform="matrix(.77806 -1.0613 1.0613 .77806 67.48 3.6413)" d="m-22.5-17.5a9.5 9.5 0 1 1 -19 0 9.5 9.5 0 1 1 19 0z" fill="#ffee54" stroke="#fcaf3e" stroke-linecap="square" stroke-width=".75991"/>
<path transform="matrix(1.2443 -.16771 .21664 1.2518 67.616 40.527)" d="m-22.5-17.5a9.5 9.5 0 1 1 -19 0 9.5 9.5 0 1 1 19 0z" fill="url(#b)"/>
<path transform="matrix(.71579 -.97635 .97635 .71579 64 5.2695)" d="m-22.5-17.5a9.5 9.5 0 1 1 -19 0 9.5 9.5 0 1 1 19 0z" fill="none" stroke="url(#c)" stroke-linecap="square" stroke-width=".82602"/>
</svg>
