<?xml version="1.0" encoding="UTF-8"?>
<svg viewBox="0 0 48 48" xmlns="http://www.w3.org/2000/svg" xmlns:cc="http://creativecommons.org/ns#" xmlns:dc="http://purl.org/dc/elements/1.1/" xmlns:rdf="http://www.w3.org/1999/02/22-rdf-syntax-ns#" xmlns:xlink="http://www.w3.org/1999/xlink">
<defs>
<radialGradient id="a" cx="97.468" cy="-405.91" r="358.45" gradientTransform="matrix(.021289 0 0 .027586 323.37 -435.1)" gradientUnits="userSpaceOnUse">
<stop stop-color="#787974" offset="0"/>
<stop stop-color="#787974" stop-opacity="0" offset="1"/>
</radialGradient>
</defs>
<metadata>
<rdf:RDF>
<cc:Work rdf:about="">
<dc:format>image/svg+xml</dc:format>
<dc:type rdf:resource="http://purl.org/dc/dcmitype/StillImage"/>
<dc:title>weather-clear-night</dc:title>
<dc:date>January 2006</dc:date>
<dc:creator>
<cc:Agent>
<dc:title>Ryan Collier (pseudo)</dc:title>
</cc:Agent>
</dc:creator>
<dc:publisher>
<cc:Agent>
<dc:title>http://www.tango-project.org</dc:title>
</cc:Agent>
</dc:publisher>
<dc:source>http://www.pseudocode.org</dc:source>
<dc:subject>
<rdf:Bag>
<rdf:li>weather</rdf:li>
<rdf:li>applet</rdf:li>
<rdf:li>notification</rdf:li>
</rdf:Bag>
</dc:subject>
<cc:license rdf:resource="http://creativecommons.org/licenses/publicdomain/"/>
</cc:Work>
<cc:License rdf:about="http://creativecommons.org/licenses/publicdomain/">
<cc:permits rdf:resource="http://creativecommons.org/ns#Reproduction"/>
<cc:permits rdf:resource="http://creativecommons.org/ns#Distribution"/>
<cc:permits rdf:resource="http://creativecommons.org/ns#DerivativeWorks"/>
</cc:License>
</rdf:RDF>
</metadata>
<g transform="matrix(.9987 0 0 .9987 -342.54 469.41)">
<path transform="matrix(1.3865 0 0 1.3865 444.99 -446.47)" d="m-46.5 0.25a9.75 9.75 0 1 1 -19.5 0 9.75 9.75 0 1 1 19.5 0z" fill="#eaece8"/>
<g transform="translate(37.125 -1.625)">
<path d="m323.85-456.08c0.04863 0.17562-0.12591 0.39397-0.27934 0.59855-0.20144 0.2686-0.31042 0.44775-0.07981 0.67837 0.14329 0.14328 0.57893 0.01582 0.71827-0.03991 0.3214-0.12856 0.67358-0.22953 0.9976-0.35913 0.24571-0.09829 0.4292-0.13723 0.67836-0.19952 0.28672-0.07168 0.57153 0.05707 0.67837 0.19952 0.06808 0.09078-0.46179 0.49026-0.51875 0.51874-0.24201 0.12101-0.47287 0.21798-0.71827 0.27933-0.30202 0.07551-0.57153 0.17815-0.87788 0.23942-0.30771 0.06154-0.52362 0.15456-0.79808 0.31923-0.34006 0.20404-0.62606 0.50635-0.91778 0.79808-0.27257 0.27257-0.36706 0.56686-0.27933 0.91778 0.08437 0.33751 0.21002 0.457 0.51875 0.51875 0.3433 0.06866 0.51056-0.0955 0.67836-0.31923 0.21824-0.29099 0.30168-0.66081 0.55865-0.91778 0.21494-0.21495 0.36222-0.4213 0.59856-0.59856 0.23962-0.17971 0.42089-0.27386 0.71827-0.19952 0.24731 0.06183 0.44872 0.30522 0.71826 0.35914 0.22729 0.04545 0.56158-0.26084 0.75817-0.35914 0.0429-0.02145 0.07981-0.0532 0.11972-0.0798 0.20735-0.13824 0.55041-0.07981 0.79807-0.07981 0.26905 0 0.49616 0.12837 0.71826 0.23942 0.26878 0.13438 0.50065 0.12608 0.75817 0.31923 0.27256 0.20441 0.41892 0.35898 0.55866 0.63846 0.13199 0.26397 0.19033 0.42976 0.39904 0.63846 0.22072 0.22072 0.56031 0.36079 0.79806 0.59855 0.14292 0.14291 0.23261 0.53136 0.27934 0.71827 0.07328 0.29311 0.1394 0.59907 0 0.87788-0.15089 0.30177-0.33188 0.58396-0.47885 0.87788-0.1446 0.28922-0.54921 0.53162-0.79807 0.71827-0.34301 0.25726-0.75121 0.27237-1.0774 0.59856-0.37514 0.37513-0.41054 0.59585-0.75818 1.1173-0.25687 0.38531 0.04881 0.55643 0.35914 0.47885 0.32847-0.08212 0.63271-0.15818 0.95769-0.23943 0.0532-0.0133 0.10641-0.0266 0.15961-0.0399 0.40008-0.10002 0.71782-0.41888 1.1173-0.51875 0.49734-0.12433 1.5428 0.64638 1.9952 0.91779 0.35667 0.214-0.06905 0.63308-0.23942 0.71826-0.31687 0.15844-0.63299 0.19952-0.99759 0.19952-0.23599 0-0.49249-0.07455-0.71827-0.11971-0.30515-0.06103-0.5178-0.06056-0.75817 0.11971-0.26721 0.20042-0.2359 0.45813-0.07981 0.71827 0.15594 0.25989 0.41021 0.4437 0.47884 0.71827 0.08662 0.34645-0.19337 0.53102-0.43893 0.67836-0.24655 0.14793-0.67219-0.03991-0.95769-0.03991-0.3617 0-0.71143 0.18442-0.99759 0.39904-0.12967 0.09725-0.24307 0.61316-0.27933 0.75817-0.01331 0.05321-0.02661 0.10641-0.03991 0.15962-0.09726 0.38907 0.02742 0.58727 0.15962 0.91778 0.0957 0.23926 0.32804 0.45656 0.43894 0.67837 0.13845 0.27689 0.22919 0.4594 0.07981 0.75817-0.12733 0.25465-0.17554 0.46276-0.23943 0.71826-0.04475 0.17901 0.20742 0.65822 0.27933 0.83798 0.14424 0.36058 0.01011 0.42884-0.23943 0.67837-0.2208 0.2208-0.55161 0.2758-0.79806 0.39903-0.2292 0.1146-0.68093-0.02059-0.91779-0.07981-0.26703-0.06675-0.51539 0.05818-0.71827 0.15962-0.32213 0.16107-0.3211 0.31673-0.55865 0-0.25189-0.33585-0.46083-0.68615-0.55865-1.0774-0.0133-0.05321-0.0266-0.10641-0.0399-0.15962-0.06685-0.26738-0.03991-0.59608-0.03991-0.87788 0-0.28763 0.07981-0.54462 0.07981-0.83798 0-0.31598-0.75459 0.2779-0.95768 0.35914-0.09406 0.03762-0.18623 0.0798-0.27934 0.11971-0.39873 0.17089-0.35913 0.53524-0.35913 0.87788 0 0.34152 0.19951 0.60231 0.19951 0.95769 0 0.34243-0.40342 0.43894-0.67835 0.43894-0.39099 0-0.5722-0.45249-0.83798-0.71827-0.25426-0.25425-0.68805-0.53811-0.83798-0.83797-0.21217-0.42435-0.28391-0.66496 0.15961-0.9976 0.25414-0.1906 0.60842-0.22596 0.79808-0.47884 0.19924-0.26566 0.48175-0.63773 0-0.75817-0.32828-0.08207-0.45563-0.19618-0.83798-0.11971-0.0665 0.0133-0.13301 0.0266-0.19952 0.0399-0.65946 0.13189-0.65494 0.07157-1.2769-0.23942-0.44759-0.2238-0.60098-0.56108-0.91778-0.87788-0.29493-0.29493-0.46228-0.69193-0.55865-1.0774-0.08871-0.3548-0.19371-0.69501-0.27933-1.0375-0.07014-0.28054-0.0798-0.62556-0.0798-0.91778 0-0.29704-0.07981-0.61345-0.07981-0.91779v-0.99759c0-0.33653 0.0399-0.63407 0.0399-0.95769 0-0.27723 0.05424-0.61602 0.11971-0.87789 0.00645-0.0258 0-0.0532 0-0.0798 0-0.34036 0.19708-0.69223 0.31923-0.9976 0.10762-0.26907 0.27463-0.54927 0.39904-0.79807 0.13029-0.26057 0.26091-0.48091 0.43894-0.71827 0.1922-0.25627 0.39689-0.51616 0.59855-0.75817 0.34733-0.41679 0.70836-0.80669 1.1173-1.1572 0.23897-0.20482 0.35656-0.54674 0.63846-0.75816 0.34879-0.2616 0.65243-0.53921 0.99759-0.79808 0.2624-0.1968 0.50187-0.4241 0.67836-0.71827 0.14357-0.23929 0.22463-0.46405 0.43894-0.67836 0.05268-0.05268 0.22985-0.13487 0.27934-0.15961z" fill="#787974" fill-rule="evenodd" opacity=".10556"/>
<path d="m334.86-450.97c-0.38499 0.0925-1.1527 0.22436-1.676 0.11971-0.40086-0.08017-0.41421-0.30406-0.79807 0.07981-0.02661 0.0266-0.05321 0.0532-0.07982 0.07981-0.24233 0.24233-0.27932 0.27859-0.27932 0.63846 0 0.2363 0.00354 0.4611-0.0399 0.67836-0.04668 0.23338-0.01155 0.59226 0.0399 0.79807 0.07843 0.31372 0.12792 0.53517 0.27932 0.83798 0.12091 0.24181 0.17725 0.43221 0.39904 0.59856 0.288 0.21599 0.68441 0.27376 0.9976 0.39903 0.22083 0.08834 0.59074 0.03991 0.83797 0.03991 0.31364 0 0.35914 0.03554 0.35914 0.39903 0 0.31202-0.58566 0.74998-0.75817 1.0375-0.19089 0.31814-0.11781 0.56436 0 0.91779 0.08782 0.26347 0.1448 0.5245 0.19951 0.79807 0.05704 0.28517 0.13143 0.49056 0.35914 0.71827 0.24219 0.2422 0.68895-0.02579 0.91778 0.27933 0.11503 0.15336 0.11972 0.40725 0.11972 0.59855 0 0.31727 0.10251 0.46749 0.39903 0.31923 0.26993-0.13496 0.4726-0.12467 0.67837-0.39904 0.19592-0.26123 0.29408-0.58817 0.43894-0.87788 0.12918-0.25837 0.35001-0.27932 0.63846-0.27932 0.26664 0 0.4808 0.06934 0.75817 0 0.40637-0.1016 0.46832-0.2289 0.75816-0.51875 0.36667-0.36667 0.32315-0.62199 0.39904-1.0774 0.03425-0.20545-0.03384-0.45465-0.0798-0.63846-0.0133-0.05321-0.0266-0.10641-0.03991-0.15962-0.05561-0.22243-0.54378-0.23942-0.71826-0.23942-0.38567 0-0.95765-0.18953-1.3168-0.27933-0.18343-0.04585-0.69207-0.65216-0.83797-0.79807-0.2109-0.21089-0.25241-0.37116-0.31923-0.63846-0.08233-0.32931-0.03838-0.67226-0.11971-0.99759-0.09324-0.37293 0.01585-0.5827-0.27933-0.87788-0.20899-0.209-0.34674-0.49671-0.39904-0.75818-0.05045-0.25226-0.28717-0.53461-0.47884-0.67836-0.14021-0.10515-0.15679-0.07924-0.35913-0.11971z" fill="#787974" fill-rule="evenodd" opacity=".18889"/>
<path d="m341-448.66c-0.20686 0.00687-0.41855 0.25893-0.59856 0.43894-0.17692 0.17692-0.11971 0.4801-0.11971 0.71826 0 0.26057 0.05601 0.5433 0.11971 0.79808 0.05403 0.21611 0.253 0.49242 0.39904 0.63846 0.22008 0.22008 0.50176 0.34965 0.79807 0.39903 0.38807 0.06468 0.60185 0.11149 0.75818-0.27932 0.10737-0.26842 0.15961-0.45302 0.15961-0.75817 0-0.27625-0.01239-0.48851-0.07981-0.75817-0.08146-0.32585-0.18635-0.49221-0.47884-0.63846-0.20729-0.10364-0.41834-0.34368-0.59856-0.47885-0.10339-0.07754-0.23587-0.0798-0.35913-0.0798z" fill="#787974" fill-rule="evenodd" opacity=".18333"/>
<path d="m328.36-436.21c0.21632-0.14825 0.84563-0.79382 1.2769-1.1173 0.08311-0.06233 0.15961-0.13301 0.23942-0.19952 0.43011-0.35842 0.80496-0.92811 1.1173-1.3966 0.49552-0.74328 0.71315-1.411 0.87788-2.2346 0.20928-1.0464 0.26214-0.34748 0.0399 0.31924-0.03468 0.10405-0.0532 0.21282-0.07981 0.31922-0.10903 0.43615-0.15211 0.89903-0.31922 1.3168-0.22556 0.5639-0.65123 1.0486-0.79808 1.636-0.07835 0.31342-0.18502 0.69649-0.11972 0.95769 0.07804 0.31211 0.53278-0.37711 0.83799-0.47885 0.4153-0.13843 0.51874-0.22895 0.51874 0.23943 0 0.28308-0.14275 0.67387-0.19952 0.95769-0.09786 0.48934 1.288 0.07702 1.5962 0 1.0073-0.25183 1.6982-0.59713 2.5139-1.2769 0.89829-0.74857 1.6454-1.5656 2.474-2.3942 0.66669-0.66668 0.98041-1.0848 0.55866 0.03991-0.03991 0.10641-0.07981 0.21282-0.11971 0.31923-0.03991 0.10641-0.0798 0.21282-0.11971 0.31923-0.22087 0.58898-0.62389 1.2406-1.1572 1.5962-0.83096 0.55397-1.3696 1.5826-2.2745 2.0351-0.36626 0.18313-0.74917 0.25488-1.1173 0.43894-0.36945 0.18473 0.71851 0.31485 0.91778 0.35914 2.0033 0.44518-1.6212 0.63846-2.075 0.63846-0.74853 0-1.1228-0.15633-1.7159 0.19951-0.20269 0.12161 0.94323 0.58769 0.99758 0.59856 0.4676 0.09352 0.88473 0.39904 1.3966 0.39904 0.84991 0-1.7729 0.26507-2.5139 0.07981-0.62118-0.1553-1.2098-0.2825-1.8356-0.43895-0.31755-0.07938-0.63616-0.0305-0.9178 0.03991-0.05598 0.01399 0.03991 0.82339 0.03991 0.91778 0 0.591-0.15469 1.0522-0.43894 0.19952-0.15311-0.45935-0.43894-0.94432-0.43894-1.4365 0-0.31166-0.41156 0.46894-0.59855 0.71827-0.26333 0.3511-0.78197 0.8539-0.87788 0.87788-0.01307 0.00326 0.25819-0.55392 0.35913-0.95769 0.07585-0.3034 0.56595-1.1155 0.23942-1.1971-0.3049-0.07623-0.72505-0.01732-1.0375-0.07981-0.46341-0.09268-0.96027-0.18086-1.3966-0.39904-0.84451-0.42225-2.1628-0.81006-3.0726-1.0375-0.0838-0.02095-1.4555-1.4954-0.15962-0.19951 0.85544 0.85544 2.1906 1.4365 3.3918 1.4365 0.38491 0 0.95655-0.14935 1.3168-0.23942 0.21699-0.05425 0.51677-0.38229 0.75817-0.47885 0.26199-0.10479-0.41791-0.38179-0.59855-0.59855-0.06651-0.07981-0.13302-0.15962-0.19953-0.23942-0.71532-0.8584-0.96642-2.0438-1.7956-2.8731-0.13341-0.1334-2.0778-2.4032-1.1572-1.636 0.95189 0.79324 1.8316 1.4984 2.6336 2.4341 0.41125 0.4798 0.76487 1.1057 1.1572 1.5962 0.39477 0.49348 0.31152-0.10291 0.19951-0.43894-0.24012-0.72038-0.1197-1.7215-0.1197-2.474 0-0.99806 0.51551 1.0246 0.55865 1.1971 0.12401 0.49605 0.38047 1.1421 0.75816 0.63846 0.39026-0.52034 0.43894-0.61871 0.43894 0.03991v0.15961c0 0.24765-0.01314 0.53284 0.0399 0.79807z" fill="#f3f4f2" fill-rule="evenodd" opacity=".47222"/>
<path d="m340.05-444.98c0.07999 0.0851 0.15962 0.37727 0.15962 0.63846 0 0.10627-0.65983 0.61991-0.75818 0.71827-0.19197 0.19196-0.23069 0.51496-0.27932 0.75816-0.06267 0.31332-0.14128 0.53067-0.07981 0.83798 0.05209 0.26046 0.16017 0.51987 0.27932 0.75817 0.14338 0.28674 0.35124 0.43104 0.59856 0.67837 0.27549 0.27549 0.61563 0.27362 0.95768 0.35913 0.43482 0.1087-0.25838 0.523-0.35913 0.59856-0.26793 0.20095-0.5291 0.26013-0.67836 0.55865-0.1729 0.3458 0.18476 0.47294 0.39904 0.55865 0.2419 0.09676 0.60668-0.33006 0.71827-0.47885 0.15065-0.20087 0.39904-0.42712 0.39904-0.67836 0-0.24697 0.1197-0.50826 0.1197-0.79807 0-0.27029 0.06139-0.56478 0.11971-0.79808 0.08886-0.35541 0.21725-0.49656 0.43894-0.71826 0.17864-0.17863 0.17417-0.6202 0.11972-0.83798-0.06244-0.24974-0.21901-0.47698-0.27933-0.71827-0.06152-0.24606-0.36202-0.38978-0.55865-0.43894-0.23626-0.05906-0.56748-0.48767-0.71827-0.63846-0.20761-0.20761-0.2995-0.35913-0.59855-0.35913z" fill="#787974" fill-rule="evenodd" opacity=".11667"/>
<path d="m322.69-446.02c-0.00941-0.00941 0.02661 0 0 0z" fill="none" stroke="#000" stroke-width="1.0013px"/>
<path d="m327.6-455.68c0.17193-0.04255 0.57166-0.17284 0.83797-0.23942 0.34034-0.08508 0.69744 0.11971 1.0375 0.11971 0.03453 0 0.25527 0.43894 0.63846 0.43894h0.15962c0.24164 0 0.51173 0.1925 0.67836 0.35914 0.16091 0.1609 0.01357 0.54508-0.07981 0.63846-0.25418 0.25417-0.48157 0.07707-0.67836-0.11972-0.21053-0.21053-0.32098-0.28974-0.59856-0.35913-0.27563-0.06891-0.57017-0.02705-0.83797 0.03991-0.32704 0.08176-0.54193 0.15961-0.91779 0.15961-0.12562 0-0.5121-0.54536-0.55866-0.63846-0.08209-0.16419 0.21875-0.37391 0.31924-0.39904z" fill="#938f8b" fill-rule="evenodd" opacity=".2"/>
<path d="m332.43-455c0.19753 0.05123 0.64044 0.0394 0.95768-0.03991 0.35162-0.0879 0.90828-0.13206 1.2769-0.0399 0.22336 0.05584 1.5873 0.32367 0.95768 0.63846-0.31149 0.15575-0.64122 0.19319-0.91778 0.35913-0.33295 0.19977 0.40229 0.27933 0.55865 0.27933 0.42422 0 0.18044 0.51064 0.07981 0.67836-0.15693 0.26154-0.05038 0.66587 0 0.91779 0.05707 0.28533 0.54752 0.23942 0.79807 0.23942 0.34322 0 0.63189 0.04445 0.83798 0.31923 0.18225 0.243 0.43466 0.4874 0.31923 0.71827-0.11889 0.23778-0.72141 0.27932-0.91778 0.27932-0.15157 0-0.75039-0.7629-0.83799-0.83798-0.23047-0.19755-0.49986-0.01469-0.71825 0.03991-0.38884 0.0972-0.67608-0.39713-0.9178-0.59856-0.26154-0.21795-0.42515-0.53108-0.55865-0.79807-0.16889-0.33778 0.10385-0.47885-0.39903-0.47885-0.3123 0-0.48314-0.06307-0.71828-0.23942-0.31928-0.23946-0.55864-0.14689-0.55864-0.59856 0-0.39868 0.02169-0.5158 0.35913-0.71826 0.10827-0.06496 0.25395-0.03266 0.39904-0.11971z" fill="#938f8b" fill-rule="evenodd" opacity=".28889"/>
<path d="m323.88-456.19c0.04864 0.17563-0.12589 0.39398-0.27933 0.59856-0.20144 0.2686-0.31042 0.44774-0.07981 0.67836 0.14329 0.14329 0.57893 0.01583 0.71827-0.0399 0.3214-0.12856 0.67358-0.22953 0.99759-0.35914 0.24572-0.09828 0.42921-0.13723 0.67837-0.19952 0.28672-0.07167 0.57153 0.05708 0.67836 0.19952 0.06809 0.09079-0.46179 0.49027-0.51875 0.51875-0.24201 0.12101-0.47286 0.21798-0.71826 0.27933-0.30202 0.0755-0.57153 0.17815-0.87789 0.23942-0.3077 0.06154-0.52361 0.15455-0.79807 0.31923-0.34006 0.20404-0.62606 0.50635-0.91778 0.79807-0.27258 0.27258-0.36706 0.56687-0.27933 0.91779 0.08437 0.33751 0.21002 0.457 0.51874 0.51875 0.34331 0.06866 0.51057-0.0955 0.67837-0.31923 0.21824-0.29099 0.30168-0.66081 0.55865-0.91779 0.21494-0.21494 0.36221-0.4213 0.59856-0.59855 0.23961-0.17971 0.42089-0.27386 0.71826-0.19952 0.24732 0.06183 0.44873 0.30522 0.71827 0.35913 0.22729 0.04546 0.56158-0.26083 0.75817-0.35913 0.0429-0.02145 0.07981-0.05321 0.11972-0.07981 0.20735-0.13823 0.55041-0.07981 0.79807-0.07981 0.26905 0 0.49616 0.12837 0.71826 0.23943 0.26878 0.13438 0.50064 0.12608 0.75817 0.31922 0.27256 0.20442 0.41891 0.35898 0.55865 0.63846 0.132 0.26398 0.19034 0.42976 0.39905 0.63846 0.22072 0.22073 0.5603 0.3608 0.79806 0.59856 0.14292 0.14291 0.23261 0.53136 0.27934 0.71827 0.07328 0.29311 0.1394 0.59907 0 0.87788-0.15089 0.30177-0.33189 0.58395-0.47885 0.87788-0.14461 0.28922-0.54921 0.53161-0.79808 0.71827-0.343 0.25726-0.75121 0.27237-1.0774 0.59855-0.37514 0.37514-0.41054 0.59586-0.75818 1.1173-0.25687 0.38531 0.04881 0.55643 0.35914 0.47884 0.32847-0.08211 0.63271-0.15818 0.95769-0.23942 0.0532-0.0133 0.10641-0.0266 0.15961-0.0399 0.40007-0.10002 0.71782-0.41888 1.1173-0.51875 0.49733-0.12434 1.5428 0.64638 1.9952 0.91778 0.35667 0.214-0.06905 0.63309-0.23943 0.71827-0.31686 0.15844-0.63298 0.19952-0.99758 0.19952-0.23599 0-0.49249-0.07456-0.71827-0.11971-0.30515-0.06103-0.51781-0.06056-0.75817 0.11971-0.26722 0.20041-0.2359 0.45813-0.07981 0.71827 0.15594 0.25988 0.4102 0.4437 0.47884 0.71826 0.08662 0.34646-0.19337 0.53103-0.43894 0.67837-0.24654 0.14793-0.67218-0.03991-0.95768-0.03991-0.36171 0-0.71143 0.18442-0.99759 0.39904-0.12968 0.09725-0.24307 0.61316-0.27933 0.75817-0.01331 0.0532-0.02661 0.10641-0.03991 0.15961-0.09727 0.38907 0.02742 0.58727 0.15962 0.91779 0.0957 0.23925 0.32804 0.45656 0.43894 0.67836 0.13845 0.2769 0.22919 0.45941 0.07981 0.75817-0.12733 0.25466-0.17555 0.46276-0.23943 0.71827-0.04475 0.17901 0.20742 0.65821 0.27933 0.83798 0.14423 0.36058 0.01011 0.42884-0.23942 0.67836-0.22081 0.22081-0.55162 0.27581-0.79808 0.39904-0.22919 0.11459-0.68092-0.02059-0.91778-0.07981-0.26703-0.06675-0.51539 0.05818-0.71827 0.15962-0.32213 0.16106-0.32111 0.31673-0.55865 0-0.25189-0.33586-0.46084-0.68615-0.55865-1.0774-0.0133-0.05321-0.0266-0.10641-0.0399-0.15962-0.06686-0.26738-0.03991-0.59608-0.03991-0.87788 0-0.28764 0.07981-0.54462 0.07981-0.83798 0-0.31598-0.75459 0.2779-0.95769 0.35914-0.09405 0.03762-0.18622 0.0798-0.27933 0.11971-0.39874 0.17088-0.35913 0.53524-0.35913 0.87788 0 0.34152 0.19952 0.60231 0.19952 0.95769 0 0.34242-0.40343 0.43894-0.67836 0.43894-0.39099 0-0.5722-0.45249-0.83798-0.71827-0.25427-0.25426-0.68805-0.53811-0.83798-0.83798-0.21218-0.42434-0.28391-0.66495 0.15961-0.99759 0.25414-0.1906 0.60842-0.22596 0.79808-0.47885 0.19924-0.26565 0.48175-0.63773 0-0.75816-0.32828-0.08207-0.45564-0.19619-0.83798-0.11972-0.0665 0.0133-0.13301 0.02661-0.19952 0.03991-0.65946 0.13189-0.65494 0.07156-1.2769-0.23943-0.44759-0.22379-0.60098-0.56108-0.91778-0.87787-0.29493-0.29493-0.46228-0.69193-0.55865-1.0774-0.0887-0.3548-0.19371-0.69501-0.27933-1.0375-0.07014-0.28055-0.07981-0.62556-0.07981-0.91779 0-0.29703-0.0798-0.61344-0.0798-0.91778v-0.9976c0-0.33652 0.0399-0.63406 0.0399-0.95769 0-0.27723 0.05424-0.61602 0.11971-0.87788 0.00645-0.02581 0-0.0532 0-0.07981 0-0.34035 0.19708-0.69222 0.31923-0.99759 0.10762-0.26907 0.27463-0.54927 0.39904-0.79807 0.13028-0.26058 0.26091-0.48091 0.43893-0.71827 0.19221-0.25628 0.3969-0.51617 0.59856-0.75817 0.34733-0.4168 0.70836-0.80669 1.1173-1.1572 0.23897-0.20483 0.35655-0.54675 0.63846-0.75817 0.34879-0.26159 0.65243-0.5392 0.99759-0.79807 0.2624-0.1968 0.50186-0.42411 0.67837-0.71827 0.14356-0.23929 0.22462-0.46405 0.43893-0.67836 0.05268-0.05268 0.22984-0.13487 0.27933-0.15962z" fill="url(#a)" fill-rule="evenodd" opacity=".17778"/>
<path transform="matrix(.021289 0 0 .021289 345.15 -457.77)" d="m-824.73 649.37a31.865 31.865 0 1 1 -63.729 0 31.865 31.865 0 1 1 63.729 0z" fill="#fff" opacity=".61667"/>
<path transform="matrix(.011271 0 0 .011271 330.39 -456.65)" d="m-824.73 649.37a31.865 31.865 0 1 1 -63.729 0 31.865 31.865 0 1 1 63.729 0z" fill="#fff" opacity=".54444"/>
<path transform="matrix(.021289 0 0 .021289 354.93 -458.53)" d="m-824.73 649.37a31.865 31.865 0 1 1 -63.729 0 31.865 31.865 0 1 1 63.729 0z" fill="#c2c3be" opacity=".54444"/>
<path transform="matrix(.021289 0 0 .021289 349.82 -448.31)" d="m-824.73 649.37a31.865 31.865 0 1 1 -63.729 0 31.865 31.865 0 1 1 63.729 0z" fill="#c2c3be" opacity=".56667"/>
<path transform="matrix(.013775 0 0 .013775 347.86 -453.49)" d="m-824.73 649.37a31.865 31.865 0 1 1 -63.729 0 31.865 31.865 0 1 1 63.729 0z" fill="#fff" opacity=".61667"/>
<path transform="matrix(.011271 0 0 .011271 337.49 -441.33)" d="m-824.73 649.37a31.865 31.865 0 1 1 -63.729 0 31.865 31.865 0 1 1 63.729 0z" fill="#fff" opacity=".61667"/>
<path transform="matrix(.013775 0 0 .013775 346.18 -447.59)" d="m-824.73 649.37a31.865 31.865 0 1 1 -63.729 0 31.865 31.865 0 1 1 63.729 0z" fill="#fff" opacity=".61667"/>
<path transform="matrix(.013775 0 0 .013775 351.37 -459)" d="m-824.73 649.37a31.865 31.865 0 1 1 -63.729 0 31.865 31.865 0 1 1 63.729 0z" fill="#fff" opacity=".61667"/>
<path transform="matrix(.013775 0 0 .013775 348.34 -458.2)" d="m-824.73 649.37a31.865 31.865 0 1 1 -63.729 0 31.865 31.865 0 1 1 63.729 0z" fill="#fff" opacity=".61667"/>
<path transform="matrix(.013775 0 0 .013775 349.53 -462.67)" d="m-824.73 649.37a31.865 31.865 0 1 1 -63.729 0 31.865 31.865 0 1 1 63.729 0z" fill="#fff" opacity=".61667"/>
<path transform="matrix(.013775 0 0 .013775 340.67 -449.42)" d="m-824.73 649.37a31.865 31.865 0 1 1 -63.729 0 31.865 31.865 0 1 1 63.729 0z" fill="#fff" opacity=".61667"/>
<path d="m328.31-435.94c0.20049-0.13569 0.7838-0.72662 1.1836-1.0227 0.07703-0.05705 0.14794-0.12175 0.22192-0.18263 0.39866-0.32808 0.74611-0.84954 1.0356-1.2784 0.45929-0.68036 0.66102-1.2915 0.81369-2.0454 0.19399-0.95783 0.24299-0.31807 0.037 0.2922-0.03215 0.09525-0.04932 0.1948-0.07398 0.29221-0.10106 0.39921-0.14098 0.82291-0.29589 1.2053-0.20907 0.51616-0.60361 0.95987-0.73973 1.4976-0.07262 0.28688-0.17148 0.63753-0.11095 0.87661 0.07232 0.28568 0.49382-0.34519 0.77671-0.43831 0.38495-0.12671 0.48082-0.20957 0.48082 0.21916 0 0.25912-0.13232 0.61682-0.18493 0.87661-0.09071 0.44791 1.1939 0.0705 1.4794 0 0.93365-0.23051 1.574-0.54658 2.3302-1.1688 0.83261-0.6852 1.5251-1.4331 2.2932-2.1915 0.61795-0.61025 0.90873-0.99294 0.51781 0.03652-0.03698 0.0974-0.07398 0.19481-0.11096 0.29221-0.03699 0.0974-0.07397 0.1948-0.11095 0.2922-0.20473 0.53913-0.57829 1.1356-1.0726 1.461-0.77021 0.50708-1.2694 1.4486-2.1082 1.8628-0.33947 0.16763-0.6944 0.2333-1.0356 0.40179-0.34243 0.16909 0.66599 0.28819 0.85069 0.32873 1.8569 0.40749-1.5026 0.58441-1.9233 0.58441-0.6938 0-1.0407-0.14309-1.5904 0.18263-0.18787 0.11131 0.87427 0.53793 0.92465 0.54788 0.43341 0.0856 0.82005 0.36525 1.2945 0.36525 0.78777 0-1.6432 0.24264-2.3302 0.07306-0.57575-0.14215-1.1214-0.25859-1.7014-0.40179-0.29434-0.07266-0.58965-0.02791-0.85069 0.03653-0.0519 0.01281 0.03699 0.75369 0.03699 0.84009 0 0.54096-0.1434 0.96316-0.40685 0.18263-0.14193-0.42047-0.40686-0.86438-0.40686-1.3149 0-0.28528-0.38147 0.42924-0.55479 0.65746-0.24407 0.32138-0.7248 0.78161-0.8137 0.80356-0.01211 0.00299 0.23931-0.50702 0.33287-0.87662 0.07031-0.27771 0.52458-1.021 0.22192-1.0958-0.28262-0.06978-0.67204-0.01585-0.96164-0.07306-0.42953-0.08483-0.89007-0.16554-1.2945-0.36525-0.78276-0.38651-2.0047-0.74149-2.848-0.94967-0.07768-0.01917-1.3491-1.3688-0.14795-0.18262 0.7929 0.78302 2.0304 1.3149 3.1438 1.3149 0.35677 0 0.88662-0.13671 1.2206-0.21916 0.20112-0.04965 0.47898-0.34992 0.70274-0.4383 0.24283-0.09593-0.38736-0.34947-0.5548-0.54788-0.06164-0.07306-0.12328-0.14611-0.18493-0.21916-0.66303-0.78573-0.89577-1.8708-1.6644-2.6298-0.12365-0.12211-1.9259-2.1997-1.0726-1.4976 0.8823 0.72609 1.6977 1.3716 2.4411 2.2281 0.38119 0.43918 0.70895 1.0121 1.0726 1.461 0.36592 0.45169 0.28875-0.09421 0.18493-0.40178-0.22258-0.6594-0.11096-1.5758-0.11096-2.2646 0-0.91357 0.47782 0.93782 0.51781 1.0958 0.11494 0.45405 0.35266 1.0454 0.70274 0.58441 0.36173-0.47629 0.40685-0.56634 0.40685 0.03652v0.1461c0 0.22669-0.01218 0.48773 0.03699 0.73051z" fill="#fff" fill-rule="evenodd"/>
<g transform="translate(461.7 -517.21)" fill="#a3a4a0" opacity=".31667">
<path transform="matrix(1 0 0 1.0556 -.17678 -4.0809)" d="m-125.69 68.683a1.7678 1.591 0 1 1 -3.5355 0 1.7678 1.591 0 1 1 3.5355 0z" opacity="1"/>
<path transform="matrix(1 0 0 1.0556 1.7678 -.10344)" d="m-125.69 68.683a1.7678 1.591 0 1 1 -3.5355 0 1.7678 1.591 0 1 1 3.5355 0z" opacity="1"/>
<path transform="matrix(.65 0 0 .68611 -40.279 25.214)" d="m-125.69 68.683a1.7678 1.591 0 1 1 -3.5355 0 1.7678 1.591 0 1 1 3.5355 0z" opacity="1"/>
<path transform="matrix(1.55 0 0 1.6361 63.03 -45.537)" d="m-125.69 68.683a1.7678 1.591 0 1 1 -3.5355 0 1.7678 1.591 0 1 1 3.5355 0z" opacity="1"/>
<path transform="matrix(1.8 0 0 1.9 89.148 -57.506)" d="m-125.69 68.683a1.7678 1.591 0 1 1 -3.5355 0 1.7678 1.591 0 1 1 3.5355 0z" opacity="1"/>
<path transform="matrix(1.4 0 0 1.4778 42.32 -25.709)" d="m-125.69 68.683a1.7678 1.591 0 1 1 -3.5355 0 1.7678 1.591 0 1 1 3.5355 0z" opacity="1"/>
<path transform="matrix(1.4 0 0 1.4778 40.729 -32.285)" d="m-125.69 68.683a1.7678 1.591 0 1 1 -3.5355 0 1.7678 1.591 0 1 1 3.5355 0z" opacity="1"/>
</g>
<path transform="translate(490.91 -504.26)" d="m-161.84 69.523a0.66291 0.66291 0 1 1 -1.3258 0 0.66291 0.66291 0 1 1 1.3258 0z" fill="#fff"/>
</g>
<path transform="matrix(1.3865 0 0 1.3865 445.01 -446.36)" d="m-46.5 0.25a9.75 9.75 0 1 1 -19.5 0 9.75 9.75 0 1 1 19.5 0z" fill="none" stroke="#888a85" stroke-width=".72219"/>
<path transform="matrix(.77807 -1.0613 1.0613 .77807 410.47 -466.35)" d="m-22.5-17.5a9.5 9.5 0 1 1 -19 0 9.5 9.5 0 1 1 19 0z" fill="none" stroke="#fff" stroke-linecap="square" stroke-width=".76089"/>
</g>
</svg>
